<?xml version="1.0" standalone="no"?>
<!DOCTYPE svg PUBLIC "-//W3C//DTD SVG 20010904//EN"
 "http://www.w3.org/TR/2001/REC-SVG-20010904/DTD/svg10.dtd">
<svg version="1.0" xmlns="http://www.w3.org/2000/svg"
 width="512.000000pt" height="512.000000pt" viewBox="0 0 512.000000 512.000000"
 preserveAspectRatio="xMidYMid meet">
<metadata>
Created by potrace 1.14, written by Peter Selinger 2001-2017
</metadata>
<g transform="translate(0.000000,512.000000) scale(0.100000,-0.100000)"
fill="#000000" stroke="none">
<path d="M317 4801 l-318 -318 93 -85 c161 -146 281 -243 393 -318 28 -19 52
-36 55 -40 6 -7 182 -115 245 -151 66 -37 286 -145 345 -170 30 -12 60 -26 66
-30 14 -11 13 -2244 -1 -2256 -5 -5 -55 -29 -110 -53 -253 -111 -510 -265
-735 -439 -85 -66 -301 -252 -332 -287 -16 -18 -3 -33 300 -336 l317 -317 60
55 c297 271 617 466 969 590 135 47 367 106 471 119 28 3 64 8 80 11 109 19
520 26 615 10 14 -2 52 -7 85 -11 33 -3 67 -8 75 -10 8 -3 31 -7 50 -10 181
-31 436 -109 620 -190 261 -116 530 -294 760 -504 30 -28 60 -51 65 -51 6 0
151 141 323 314 l313 313 -98 90 c-308 283 -683 528 -1033 674 -30 12 -60 26
-66 30 -14 11 -13 2244 1 2257 6 5 34 19 64 31 254 106 550 281 780 459 94 74
299 251 333 288 16 18 3 33 -300 335 l-317 317 -60 -55 c-527 -481 -1146 -730
-1830 -738 -170 -2 -229 1 -385 19 -196 23 -494 101 -655 171 -192 84 -274
124 -375 186 -25 15 -65 40 -90 55 -48 29 -246 176 -295 219 -36 32 -100 89
-135 121 l-25 23 -318 -318z m1863 -1356 c194 -25 530 -24 775 1 l60 6 0 -892
0 -892 -75 7 c-41 3 -100 9 -130 12 -84 7 -404 7 -505 -1 -103 -8 -188 -17
-195 -21 -4 -3 -5 1740 -1 1782 0 7 7 11 14 8 6 -2 32 -6 57 -10z"/>
</g>
</svg>
